<?xml version="1.0" standalone="no"?>
<!DOCTYPE svg PUBLIC "-//W3C//DTD SVG 20010904//EN"
 "http://www.w3.org/TR/2001/REC-SVG-20010904/DTD/svg10.dtd">
<svg version="1.0" xmlns="http://www.w3.org/2000/svg"
 width="1315.000000pt" height="597.000000pt" viewBox="0 0 1315.000000 597.000000"
 preserveAspectRatio="xMidYMid meet">
<metadata>
Created by potrace 1.16, written by Peter Selinger 2001-2019
</metadata>
<g transform="translate(0.000000,597.000000) scale(0.100000,-0.100000)"
fill="#000000" stroke="none">
<path d="M920 5509 c-362 -42 -613 -236 -719 -554 -53 -160 -56 -208 -56 -825
0 -638 -3 -615 78 -668 58 -38 146 -38 204 0 72 48 78 70 81 341 l3 237 564 0
564 0 3 -237 c3 -227 4 -240 26 -278 28 -50 74 -82 127 -90 86 -14 184 40 206
113 7 25 9 227 7 637 l-4 600 -27 99 c-58 213 -163 370 -321 478 -183 126
-452 179 -736 147z m335 -355 c90 -22 158 -57 216 -111 68 -63 104 -120 136
-218 23 -71 27 -100 31 -262 l4 -183 -567 0 -567 0 4 183 c4 162 8 191 31 262
41 125 101 206 196 266 124 79 340 105 516 63z"/>
<path d="M2880 4939 c-74 -12 -186 -69 -244 -123 -38 -35 -49 -41 -53 -27 -26
83 -69 126 -136 136 -92 14 -173 -36 -196 -122 -15 -52 -15 -1194 0 -1246 5
-21 24 -53 40 -72 85 -96 257 -54 288 70 7 28 11 170 11 395 0 389 6 442 61
538 90 158 325 191 450 63 82 -85 82 -87 89 -571 4 -376 7 -429 22 -456 74
-136 277 -116 317 31 7 25 11 170 11 391 0 193 4 375 10 404 35 186 158 291
325 278 113 -10 189 -67 232 -178 15 -39 18 -97 23 -470 4 -376 7 -429 22
-456 57 -104 202 -124 277 -39 51 59 53 80 48 549 -5 478 -8 506 -73 642 -60
127 -178 219 -324 255 -30 8 -106 13 -170 13 -191 -1 -308 -44 -423 -155 l-68
-65 -20 32 c-43 70 -142 140 -237 168 -69 20 -211 28 -282 15z"/>
<path d="M5265 4936 c-317 -53 -534 -252 -606 -554 -18 -74 -20 -109 -16 -232
5 -162 19 -226 73 -335 85 -173 241 -303 434 -363 282 -87 619 -27 807 142 83
76 103 110 103 178 0 95 -63 158 -158 158 -53 0 -86 -17 -137 -70 -104 -109
-262 -158 -419 -131 -173 30 -292 134 -341 299 l-6 22 486 0 c335 0 500 4 532
12 102 25 152 120 138 261 -27 286 -238 522 -532 598 -102 26 -256 32 -358 15z
m235 -306 c151 -29 271 -134 314 -277 l7 -23 -411 0 -411 0 6 23 c4 12 21 48
38 80 78 149 271 232 457 197z"/>
<path d="M8940 4944 c-272 -33 -480 -168 -594 -384 -63 -119 -81 -204 -81
-380 0 -179 12 -239 75 -365 75 -152 178 -252 335 -326 117 -55 214 -74 370
-72 151 1 246 22 361 79 85 42 188 124 229 183 68 100 15 239 -99 258 -66 11
-103 -4 -174 -71 -37 -35 -86 -73 -109 -85 -94 -47 -209 -62 -315 -40 -204 43
-328 209 -328 439 0 233 127 399 338 440 120 24 259 -6 350 -74 116 -88 122
-91 183 -91 66 0 101 20 134 76 26 45 26 125 -1 168 -51 80 -219 184 -357 220
-77 20 -247 33 -317 25z"/>
<path d="M10325 4940 c-222 -35 -405 -168 -500 -363 -59 -123 -85 -241 -85
-397 0 -386 192 -661 520 -747 87 -22 280 -22 372 0 90 22 192 75 255 131 l51
46 12 -50 c40 -168 283 -170 329 -3 15 51 15 1194 1 1245 -24 84 -107 137
-197 123 -62 -9 -117 -62 -134 -128 l-11 -47 -48 44 c-62 55 -170 111 -251
131 -82 19 -237 27 -314 15z m300 -325 c199 -52 315 -212 315 -435 0 -223
-116 -383 -315 -435 -193 -50 -398 34 -481 196 -72 143 -72 334 0 478 47 92
155 175 263 200 60 14 154 12 218 -4z"/>
<path d="M12205 4940 c-127 -20 -227 -67 -314 -145 l-40 -37 -12 46 c-41 165
-283 164 -328 -1 -15 -52 -15 -1194 0 -1246 23 -86 104 -136 196 -122 48 7
107 51 126 94 8 17 13 159 17 411 5 368 7 387 28 441 70 176 203 259 393 246
130 -9 216 -58 266 -154 49 -92 53 -132 53 -521 0 -218 4 -372 11 -395 47
-169 291 -165 329 6 19 83 8 841 -13 932 -52 223 -197 377 -402 430 -76 19
-232 27 -310 15z"/>
<path d="M6995 4930 c-118 -21 -205 -69 -285 -157 -43 -47 -50 -52 -50 -31 0
49 -24 104 -59 139 -89 90 -246 46 -280 -78 -15 -52 -15 -1194 0 -1246 34
-122 185 -166 279 -81 56 51 60 80 60 421 0 325 8 391 55 486 45 90 128 160
220 187 22 6 84 15 137 19 71 7 106 15 132 30 41 26 76 92 76 146 0 54 -35
120 -76 146 -41 25 -131 33 -209 19z"/>
<path d="M10154 3029 c-40 -11 -90 -67 -103 -116 -15 -53 -15 -1853 0 -1906
23 -86 104 -136 196 -122 48 7 107 51 126 94 8 17 13 159 17 411 5 368 7 387
28 441 70 176 203 259 393 246 130 -9 216 -58 266 -154 49 -92 53 -132 53
-521 0 -218 4 -372 11 -395 34 -123 185 -166 279 -81 60 55 63 78 57 544 -5
458 -9 488 -78 628 -99 201 -270 296 -534 296 -184 0 -313 -43 -422 -139 l-53
-47 0 332 c0 207 -4 347 -11 375 -24 95 -121 144 -225 114z"/>
<path d="M3075 2921 c-47 -12 -72 -28 -102 -68 l-28 -36 -3 -891 c-2 -586 1
-903 7 -926 35 -119 213 -157 305 -66 52 52 56 87 56 450 l0 326 481 0 c423 0
485 2 515 16 54 26 78 68 82 144 3 55 0 70 -20 99 -13 19 -39 44 -58 55 -34
20 -52 21 -517 24 l-483 3 0 269 0 270 603 2 602 3 33 23 c44 32 65 76 65 137
0 54 -18 98 -51 128 -50 46 -59 46 -777 46 -374 -1 -693 -4 -710 -8z"/>
<path d="M11701 2833 c-18 -9 -45 -34 -60 -57 l-26 -40 0 -705 c0 -655 1 -711
18 -771 56 -195 177 -321 362 -376 74 -22 264 -25 345 -5 137 33 266 127 321
231 31 60 32 147 3 187 -35 46 -82 73 -131 73 -60 0 -88 -17 -155 -93 -43 -49
-69 -69 -105 -81 -129 -44 -250 5 -292 120 -20 51 -21 76 -21 389 l0 335 268
0 c260 0 270 1 312 23 58 31 82 76 77 145 -4 60 -27 97 -78 127 -31 18 -55 20
-306 23 l-271 3 -4 188 c-3 184 -4 188 -30 228 -14 22 -42 47 -61 56 -45 22
-122 21 -166 0z"/>
<path d="M6465 2386 c-317 -53 -534 -252 -606 -554 -18 -74 -20 -109 -16 -232
5 -162 19 -226 73 -335 85 -173 241 -303 434 -363 282 -87 619 -27 807 142 83
76 103 110 103 178 0 95 -63 158 -158 158 -53 0 -86 -17 -137 -70 -104 -109
-262 -158 -419 -131 -173 30 -292 134 -341 299 l-6 22 486 0 c335 0 500 4 532
12 102 25 152 120 138 261 -27 286 -238 522 -532 598 -102 26 -256 32 -358 15z
m235 -306 c151 -29 271 -134 314 -277 l7 -23 -411 0 -411 0 6 23 c4 12 21 48
38 80 78 149 271 232 457 197z"/>
<path d="M8875 2390 c-160 -26 -279 -83 -380 -185 -153 -154 -214 -336 -202
-597 7 -143 23 -212 78 -325 120 -245 370 -378 674 -360 162 10 280 53 389
142 l58 48 -4 -104 c-3 -91 -7 -112 -34 -170 -39 -82 -90 -133 -168 -170 -107
-50 -245 -63 -379 -34 -92 19 -159 52 -236 113 -87 70 -142 78 -219 31 -38
-22 -71 -87 -72 -138 0 -50 35 -115 88 -162 56 -50 201 -121 294 -143 173 -43
401 -45 553 -6 202 51 361 173 444 340 75 153 74 143 78 882 3 450 1 670 -7
697 -23 87 -106 140 -197 126 -62 -9 -117 -62 -134 -128 l-11 -47 -55 49 c-63
57 -158 105 -246 126 -81 19 -236 26 -312 15z m303 -325 c91 -22 152 -56 210
-119 65 -71 93 -144 100 -255 16 -274 -152 -451 -428 -451 -186 1 -312 75
-381 223 -63 137 -50 327 31 449 91 137 277 198 468 153z"/>
<path d="M5535 2380 c-118 -21 -205 -69 -285 -157 -43 -47 -50 -52 -50 -31 0
49 -24 104 -59 139 -89 90 -246 46 -280 -78 -15 -52 -15 -1194 0 -1246 34
-122 185 -166 279 -81 56 51 60 80 60 421 0 325 8 391 55 486 45 90 128 160
220 187 22 6 84 15 137 19 71 7 106 15 132 30 41 26 76 92 76 146 0 54 -35
120 -76 146 -41 25 -131 33 -209 19z"/>
</g>
</svg>
